<svg xmlns="http://www.w3.org/2000/svg" xmlns:xlink="http://www.w3.org/1999/xlink" version="1.1" x="0px" y="0px" viewBox="0 0 1700 2125" style="enable-background:new 0 0 1700 1700;" xml:space="preserve"><g><g><path d="M1148.5,1552.1h-597c-75,0-145.5-29.2-198.5-82.2s-82.2-123.5-82.2-198.5V920.7c0-75,29.2-145.5,82.2-198.5    S476.5,640,551.5,640h597c75,0,145.5,29.2,198.5,82.2s82.2,123.5,82.2,198.5v350.6c0,75-29.2,145.5-82.2,198.5    C1294,1522.9,1223.5,1552.1,1148.5,1552.1z M551.5,688c-128.3,0-232.7,104.4-232.7,232.7v350.6c0,128.3,104.4,232.7,232.7,232.7    h597c128.3,0,232.7-104.4,232.7-232.7V920.7c0-128.3-104.4-232.7-232.7-232.7H551.5z"/><g><g><path d="M626.1,1109.7c-64.4,0-116.8-52.4-116.8-116.8s52.4-116.8,116.8-116.8s116.8,52.4,116.8,116.8      S690.5,1109.7,626.1,1109.7z M626.1,924.1c-37.9,0-68.8,30.9-68.8,68.8s30.9,68.8,68.8,68.8c37.9,0,68.8-30.9,68.8-68.8      C694.9,955,664,924.1,626.1,924.1z"/><path d="M1073.9,1109.7c-64.4,0-116.8-52.4-116.8-116.8s52.4-116.8,116.8-116.8s116.8,52.4,116.8,116.8      S1138.3,1109.7,1073.9,1109.7z M1073.9,924.1c-37.9,0-68.8,30.9-68.8,68.8s30.9,68.8,68.8,68.8s68.8-30.9,68.8-68.8      C1142.7,955,1111.8,924.1,1073.9,924.1z"/></g><path d="M850,1316c-56.1,0-112.2-13.5-162.3-39c-11.8-6-16.5-20.5-10.5-32.3s20.5-16.5,32.3-10.5c88,44.8,193,44.8,280.9,0     c11.8-6,26.3-1.3,32.3,10.5c6,11.8,1.3,26.3-10.5,32.3C962.2,1302.5,906.1,1316,850,1316z"/></g><path d="M1063.3,688H636.7c-13.3,0-24-10.7-24-24v-91.5c0-49.3,40.1-89.4,89.4-89.4h295.8c49.3,0,89.4,40.1,89.4,89.4V664    C1087.3,677.3,1076.6,688,1063.3,688z M660.7,640h378.7v-67.5c0-22.8-18.6-41.4-41.4-41.4H702.1c-22.8,0-41.4,18.6-41.4,41.4    L660.7,640L660.7,640z"/><path d="M850,531.1c-13.3,0-24-10.7-24-24V349.3c0-13.3,10.7-24,24-24s24,10.7,24,24V507C874,520.3,863.3,531.1,850,531.1z"/></g><path d="M1495.9,1115h-90.7c-13.3,0-24-10.7-24-24s10.7-24,24-24h90.7c40.9,0,74.1-33.2,74.1-74.1v-67.5c0-40-31.3-72.6-71.3-74   c-0.9,0-1.8-0.1-2.8-0.1h-108.2c-13.3,0-24-10.7-24-24s10.7-24,24-24h108.2c1.7,0,3.2,0,4.7,0.1c31.6,1.2,61.1,14.4,83.2,37.2   c22.1,22.9,34.3,53,34.3,84.8v67.5C1618,1060.2,1563.2,1115,1495.9,1115z"/><path d="M1499.6,851.4c-13.3,0-24-10.7-24-24v-5.8c0-252-150-478.3-382.1-576.5c-77.1-32.6-159-49.2-243.5-49.2   c-345,0-625.6,280.6-625.6,625.6v5.8c0,13.3-10.7,24-24,24s-24-10.7-24-24v-5.8c0-90.9,17.8-179.1,52.9-262.2   c33.9-80.2,82.5-152.3,144.4-214.1c61.9-61.9,133.9-110.4,214.1-144.3C670.9,165.8,759.1,148,850,148s179.2,17.8,262.2,52.9   c59.9,25.4,115.9,59.3,166.3,100.9c50,41.3,93.8,89.5,130.1,143.1c75.3,111.4,115.1,241.7,115.1,376.6v5.8   C1523.6,840.6,1512.9,851.4,1499.6,851.4z"/><path d="M294.8,1115h-90.7C136.8,1115,82,1060.2,82,992.9v-67.5c0-31.8,12.2-61.9,34.3-84.8c22-22.8,51.6-36,83.2-37.2   c1.4-0.1,2.9-0.1,4.6-0.1h108.2c13.3,0,24,10.7,24,24s-10.7,24-24,24H204.1c-1,0-1.9,0-2.7,0.1c-40.1,1.5-71.4,34-71.4,74.1V993   c0,40.9,33.2,74.1,74.1,74.1h90.7c13.3,0,24,10.7,24,24S308,1115,294.8,1115z"/></g><text x="0" y="1715" fill="#000000" font-size="5px" font-weight="bold" font-family="'Helvetica Neue', Helvetica, Arial-Unicode, Arial, Sans-serif">Created by Iconbunny</text><text x="0" y="1720" fill="#000000" font-size="5px" font-weight="bold" font-family="'Helvetica Neue', Helvetica, Arial-Unicode, Arial, Sans-serif">from the Noun Project</text></svg>