<?xml version="1.0" encoding="utf-8"?>
<!-- Generator: Adobe Illustrator 28.1.0, SVG Export Plug-In . SVG Version: 6.00 Build 0)  -->
<svg version="1.1" id="Layer_1" xmlns="http://www.w3.org/2000/svg" xmlns:xlink="http://www.w3.org/1999/xlink" x="0px" y="0px"
	 viewBox="0 0 841.9 527.9" style="enable-background:new 0 0 841.9 527.9;" xml:space="preserve">
<style type="text/css">
	.st0{fill:#2B2F31;}
	.st1{fill:#FDC300;}
</style>
<path class="st0" d="M441.3,331.6v-58.8c0-17.3-8.9-24.5-20.5-24.5c-11.8,0-20.5,8.3-20.5,22.4v60.9h-32.3V181.3v-14.1l14-0.1
	l17.8-0.1l0.5,59.6c7.6-3.5,15.1-6.4,28.7-6.4c26.5,0,44.5,20.1,44.5,46.9v52.1v12.3H464L441.3,331.6L441.3,331.6z"/>
<path class="st0" d="M544.5,336.3c-32.3,0-57.9-25.1-57.9-58.5s25.6-58.2,57.9-58.2c32,0,57.9,24.8,57.9,58.2
	S576.5,336.3,544.5,336.3 M544.5,249.4c-15.3,0-25.6,11.1-25.6,28.4c0,17.6,10.4,28.7,25.6,28.7c15.5,0,25.6-11.1,25.6-28.7
	C570.2,260.5,560.1,249.4,544.5,249.4"/>
<path class="st0" d="M701.4,277.8c0,17.6-10.1,28.7-25.6,28.7c-15.3,0-25.6-11.1-25.6-28.7c0-17.3,10.4-28.4,25.6-28.4
	C691.3,249.4,701.4,260.5,701.4,277.8 M733.6,277.8c0-33.3-25.9-58.2-57.9-58.2c-9.8,0-18.9,3.3-27,8.4v-1.1v-6.2h-32.3v172.2h32.3
	v-63.1c8,4.2,17.2,6.5,27,6.5C707.7,336.3,733.6,311.1,733.6,277.8"/>
<path class="st1" d="M276.5,105.4h-71.6L162,148.3v32.1h-32.1l-25.1,25.6v136.8h137.4l80.2,78.7V142.9h-45.8L276.5,105.4
	L276.5,105.4z M250.8,131.1v11.8v25.7h25.7h20.1v192.8l-43.5-44.2H130.5v-101l10.1-10.1H162h25.7v-25.7v-21.5l27.8-27.8L250.8,131.1
	L250.8,131.1z"/>
<rect x="250.6" y="188.9" class="st1" width="26" height="26"/>
<rect x="250.6" y="228.7" class="st1" width="26" height="26"/>
</svg>
